<mxfile host="app.diagrams.net" modified="2024-07-15T12:34:41.546Z" agent="Mozilla/5.0 (Windows NT 10.0; Win64; x64) AppleWebKit/537.36 (KHTML, like Gecko) Chrome/126.0.0.0 Safari/537.36 Edg/126.0.0.0" etag="yVg8iD0-Pvs2wyyTqc7Q" version="24.6.5" type="github">
  <diagram name="Page-1" id="_9hv8JcHNrn5iuzPzHvr">
    <mxGraphModel dx="929" dy="449" grid="1" gridSize="10" guides="1" tooltips="1" connect="1" arrows="1" fold="1" page="1" pageScale="1" pageWidth="850" pageHeight="1100" math="0" shadow="0">
      <root>
        <mxCell id="0" />
        <mxCell id="1" parent="0" />
        <mxCell id="o0_39gifiLNaxvfY8GJZ-2" value="&lt;b&gt;Student&lt;/b&gt;" style="rounded=0;whiteSpace=wrap;html=1;" vertex="1" parent="1">
          <mxGeometry x="80" y="85" width="110" height="30" as="geometry" />
        </mxCell>
        <mxCell id="o0_39gifiLNaxvfY8GJZ-4" value="&lt;b&gt;Event&lt;/b&gt;" style="rounded=0;whiteSpace=wrap;html=1;" vertex="1" parent="1">
          <mxGeometry x="585" y="630" width="110" height="30" as="geometry" />
        </mxCell>
        <mxCell id="o0_39gifiLNaxvfY8GJZ-5" value="CourseMaterial" style="rounded=0;whiteSpace=wrap;html=1;" vertex="1" parent="1">
          <mxGeometry x="560" y="1000" width="110" height="30" as="geometry" />
        </mxCell>
        <mxCell id="o0_39gifiLNaxvfY8GJZ-6" value="&lt;b&gt;Librarian&lt;/b&gt;" style="rounded=0;whiteSpace=wrap;html=1;" vertex="1" parent="1">
          <mxGeometry x="740" y="575" width="110" height="30" as="geometry" />
        </mxCell>
        <mxCell id="o0_39gifiLNaxvfY8GJZ-7" value="&lt;b&gt;Library&lt;/b&gt;" style="rounded=0;whiteSpace=wrap;html=1;" vertex="1" parent="1">
          <mxGeometry x="730" y="422.5" width="110" height="30" as="geometry" />
        </mxCell>
        <mxCell id="o0_39gifiLNaxvfY8GJZ-8" value="&lt;b&gt;Classroom&lt;/b&gt;" style="rounded=0;whiteSpace=wrap;html=1;" vertex="1" parent="1">
          <mxGeometry x="420" y="770" width="110" height="30" as="geometry" />
        </mxCell>
        <mxCell id="o0_39gifiLNaxvfY8GJZ-9" value="&lt;b&gt;Enrollment&lt;/b&gt;" style="rounded=0;whiteSpace=wrap;html=1;" vertex="1" parent="1">
          <mxGeometry x="40" y="510" width="110" height="30" as="geometry" />
        </mxCell>
        <mxCell id="o0_39gifiLNaxvfY8GJZ-10" value="&lt;b&gt;Department&lt;/b&gt;" style="rounded=0;whiteSpace=wrap;html=1;" vertex="1" parent="1">
          <mxGeometry x="630" y="230" width="110" height="30" as="geometry" />
        </mxCell>
        <mxCell id="o0_39gifiLNaxvfY8GJZ-11" value="&lt;b&gt;Instructor&lt;/b&gt;" style="rounded=0;whiteSpace=wrap;html=1;" vertex="1" parent="1">
          <mxGeometry x="420" y="70" width="110" height="30" as="geometry" />
        </mxCell>
        <mxCell id="o0_39gifiLNaxvfY8GJZ-12" value="&lt;b&gt;Course&lt;/b&gt;" style="rounded=0;whiteSpace=wrap;html=1;" vertex="1" parent="1">
          <mxGeometry x="200" y="300" width="110" height="30" as="geometry" />
        </mxCell>
        <mxCell id="o0_39gifiLNaxvfY8GJZ-15" style="edgeStyle=orthogonalEdgeStyle;rounded=0;orthogonalLoop=1;jettySize=auto;html=1;" edge="1" parent="1" source="o0_39gifiLNaxvfY8GJZ-14" target="o0_39gifiLNaxvfY8GJZ-2">
          <mxGeometry relative="1" as="geometry" />
        </mxCell>
        <mxCell id="o0_39gifiLNaxvfY8GJZ-16" style="edgeStyle=orthogonalEdgeStyle;rounded=0;orthogonalLoop=1;jettySize=auto;html=1;" edge="1" parent="1" source="o0_39gifiLNaxvfY8GJZ-14" target="o0_39gifiLNaxvfY8GJZ-9">
          <mxGeometry relative="1" as="geometry" />
        </mxCell>
        <mxCell id="o0_39gifiLNaxvfY8GJZ-14" value="joins" style="rhombus;whiteSpace=wrap;html=1;" vertex="1" parent="1">
          <mxGeometry x="45" y="260" width="70" height="60" as="geometry" />
        </mxCell>
        <mxCell id="o0_39gifiLNaxvfY8GJZ-18" style="edgeStyle=orthogonalEdgeStyle;rounded=0;orthogonalLoop=1;jettySize=auto;html=1;" edge="1" parent="1" source="o0_39gifiLNaxvfY8GJZ-17" target="o0_39gifiLNaxvfY8GJZ-12">
          <mxGeometry relative="1" as="geometry" />
        </mxCell>
        <mxCell id="o0_39gifiLNaxvfY8GJZ-19" style="edgeStyle=orthogonalEdgeStyle;rounded=0;orthogonalLoop=1;jettySize=auto;html=1;entryX=0.75;entryY=1;entryDx=0;entryDy=0;" edge="1" parent="1" source="o0_39gifiLNaxvfY8GJZ-17" target="o0_39gifiLNaxvfY8GJZ-9">
          <mxGeometry relative="1" as="geometry" />
        </mxCell>
        <mxCell id="o0_39gifiLNaxvfY8GJZ-17" value="proceeds" style="rhombus;whiteSpace=wrap;html=1;" vertex="1" parent="1">
          <mxGeometry x="50" y="890" width="70" height="60" as="geometry" />
        </mxCell>
        <mxCell id="o0_39gifiLNaxvfY8GJZ-21" style="edgeStyle=orthogonalEdgeStyle;rounded=0;orthogonalLoop=1;jettySize=auto;html=1;" edge="1" parent="1" source="o0_39gifiLNaxvfY8GJZ-20" target="o0_39gifiLNaxvfY8GJZ-11">
          <mxGeometry relative="1" as="geometry" />
        </mxCell>
        <mxCell id="o0_39gifiLNaxvfY8GJZ-22" style="edgeStyle=orthogonalEdgeStyle;rounded=0;orthogonalLoop=1;jettySize=auto;html=1;" edge="1" parent="1" source="o0_39gifiLNaxvfY8GJZ-20" target="o0_39gifiLNaxvfY8GJZ-12">
          <mxGeometry relative="1" as="geometry" />
        </mxCell>
        <mxCell id="o0_39gifiLNaxvfY8GJZ-20" value="teaches" style="rhombus;whiteSpace=wrap;html=1;" vertex="1" parent="1">
          <mxGeometry x="360" y="185" width="70" height="60" as="geometry" />
        </mxCell>
        <mxCell id="o0_39gifiLNaxvfY8GJZ-24" style="edgeStyle=orthogonalEdgeStyle;rounded=0;orthogonalLoop=1;jettySize=auto;html=1;" edge="1" parent="1" source="o0_39gifiLNaxvfY8GJZ-23" target="o0_39gifiLNaxvfY8GJZ-11">
          <mxGeometry relative="1" as="geometry" />
        </mxCell>
        <mxCell id="o0_39gifiLNaxvfY8GJZ-25" style="edgeStyle=orthogonalEdgeStyle;rounded=0;orthogonalLoop=1;jettySize=auto;html=1;" edge="1" parent="1" source="o0_39gifiLNaxvfY8GJZ-23" target="o0_39gifiLNaxvfY8GJZ-10">
          <mxGeometry relative="1" as="geometry" />
        </mxCell>
        <mxCell id="o0_39gifiLNaxvfY8GJZ-23" value="sends" style="rhombus;whiteSpace=wrap;html=1;" vertex="1" parent="1">
          <mxGeometry x="620" y="5" width="70" height="60" as="geometry" />
        </mxCell>
        <mxCell id="o0_39gifiLNaxvfY8GJZ-27" style="edgeStyle=orthogonalEdgeStyle;rounded=0;orthogonalLoop=1;jettySize=auto;html=1;" edge="1" parent="1" source="o0_39gifiLNaxvfY8GJZ-26" target="o0_39gifiLNaxvfY8GJZ-10">
          <mxGeometry relative="1" as="geometry" />
        </mxCell>
        <mxCell id="o0_39gifiLNaxvfY8GJZ-28" style="edgeStyle=orthogonalEdgeStyle;rounded=0;orthogonalLoop=1;jettySize=auto;html=1;" edge="1" parent="1" source="o0_39gifiLNaxvfY8GJZ-26" target="o0_39gifiLNaxvfY8GJZ-12">
          <mxGeometry relative="1" as="geometry" />
        </mxCell>
        <mxCell id="o0_39gifiLNaxvfY8GJZ-26" value="offers" style="rhombus;whiteSpace=wrap;html=1;" vertex="1" parent="1">
          <mxGeometry x="440" y="335" width="70" height="60" as="geometry" />
        </mxCell>
        <mxCell id="o0_39gifiLNaxvfY8GJZ-30" style="edgeStyle=orthogonalEdgeStyle;rounded=0;orthogonalLoop=1;jettySize=auto;html=1;" edge="1" parent="1" source="o0_39gifiLNaxvfY8GJZ-29" target="o0_39gifiLNaxvfY8GJZ-12">
          <mxGeometry relative="1" as="geometry" />
        </mxCell>
        <mxCell id="o0_39gifiLNaxvfY8GJZ-31" style="edgeStyle=orthogonalEdgeStyle;rounded=0;orthogonalLoop=1;jettySize=auto;html=1;" edge="1" parent="1" source="o0_39gifiLNaxvfY8GJZ-29" target="o0_39gifiLNaxvfY8GJZ-8">
          <mxGeometry relative="1" as="geometry" />
        </mxCell>
        <mxCell id="o0_39gifiLNaxvfY8GJZ-29" value="takes" style="rhombus;whiteSpace=wrap;html=1;" vertex="1" parent="1">
          <mxGeometry x="440" y="422.5" width="70" height="60" as="geometry" />
        </mxCell>
        <mxCell id="o0_39gifiLNaxvfY8GJZ-33" style="edgeStyle=orthogonalEdgeStyle;rounded=0;orthogonalLoop=1;jettySize=auto;html=1;entryX=0.75;entryY=1;entryDx=0;entryDy=0;" edge="1" parent="1" source="o0_39gifiLNaxvfY8GJZ-32" target="o0_39gifiLNaxvfY8GJZ-10">
          <mxGeometry relative="1" as="geometry" />
        </mxCell>
        <mxCell id="o0_39gifiLNaxvfY8GJZ-34" style="edgeStyle=orthogonalEdgeStyle;rounded=0;orthogonalLoop=1;jettySize=auto;html=1;" edge="1" parent="1" source="o0_39gifiLNaxvfY8GJZ-32" target="o0_39gifiLNaxvfY8GJZ-4">
          <mxGeometry relative="1" as="geometry" />
        </mxCell>
        <mxCell id="o0_39gifiLNaxvfY8GJZ-32" value="hosts" style="rhombus;whiteSpace=wrap;html=1;" vertex="1" parent="1">
          <mxGeometry x="605" y="420" width="70" height="60" as="geometry" />
        </mxCell>
        <mxCell id="o0_39gifiLNaxvfY8GJZ-36" style="edgeStyle=orthogonalEdgeStyle;rounded=0;orthogonalLoop=1;jettySize=auto;html=1;" edge="1" parent="1" source="o0_39gifiLNaxvfY8GJZ-35" target="o0_39gifiLNaxvfY8GJZ-7">
          <mxGeometry relative="1" as="geometry" />
        </mxCell>
        <mxCell id="o0_39gifiLNaxvfY8GJZ-37" style="edgeStyle=orthogonalEdgeStyle;rounded=0;orthogonalLoop=1;jettySize=auto;html=1;" edge="1" parent="1" source="o0_39gifiLNaxvfY8GJZ-35" target="o0_39gifiLNaxvfY8GJZ-10">
          <mxGeometry relative="1" as="geometry" />
        </mxCell>
        <mxCell id="o0_39gifiLNaxvfY8GJZ-35" value="provides" style="rhombus;whiteSpace=wrap;html=1;" vertex="1" parent="1">
          <mxGeometry x="750" y="330" width="70" height="60" as="geometry" />
        </mxCell>
        <mxCell id="o0_39gifiLNaxvfY8GJZ-39" style="edgeStyle=orthogonalEdgeStyle;rounded=0;orthogonalLoop=1;jettySize=auto;html=1;" edge="1" parent="1" source="o0_39gifiLNaxvfY8GJZ-38" target="o0_39gifiLNaxvfY8GJZ-7">
          <mxGeometry relative="1" as="geometry" />
        </mxCell>
        <mxCell id="o0_39gifiLNaxvfY8GJZ-40" style="edgeStyle=orthogonalEdgeStyle;rounded=0;orthogonalLoop=1;jettySize=auto;html=1;" edge="1" parent="1" source="o0_39gifiLNaxvfY8GJZ-38" target="o0_39gifiLNaxvfY8GJZ-6">
          <mxGeometry relative="1" as="geometry" />
        </mxCell>
        <mxCell id="o0_39gifiLNaxvfY8GJZ-38" value="has" style="rhombus;whiteSpace=wrap;html=1;" vertex="1" parent="1">
          <mxGeometry x="750" y="482.5" width="70" height="60" as="geometry" />
        </mxCell>
        <mxCell id="o0_39gifiLNaxvfY8GJZ-42" style="edgeStyle=orthogonalEdgeStyle;rounded=0;orthogonalLoop=1;jettySize=auto;html=1;" edge="1" parent="1" source="o0_39gifiLNaxvfY8GJZ-41" target="o0_39gifiLNaxvfY8GJZ-12">
          <mxGeometry relative="1" as="geometry" />
        </mxCell>
        <mxCell id="o0_39gifiLNaxvfY8GJZ-43" style="edgeStyle=orthogonalEdgeStyle;rounded=0;orthogonalLoop=1;jettySize=auto;html=1;" edge="1" parent="1" source="o0_39gifiLNaxvfY8GJZ-41" target="o0_39gifiLNaxvfY8GJZ-5">
          <mxGeometry relative="1" as="geometry" />
        </mxCell>
        <mxCell id="o0_39gifiLNaxvfY8GJZ-41" value="provides" style="rhombus;whiteSpace=wrap;html=1;" vertex="1" parent="1">
          <mxGeometry x="300" y="940" width="70" height="60" as="geometry" />
        </mxCell>
        <mxCell id="o0_39gifiLNaxvfY8GJZ-59" style="edgeStyle=orthogonalEdgeStyle;rounded=0;orthogonalLoop=1;jettySize=auto;html=1;" edge="1" parent="1" source="o0_39gifiLNaxvfY8GJZ-46" target="o0_39gifiLNaxvfY8GJZ-2">
          <mxGeometry relative="1" as="geometry" />
        </mxCell>
        <mxCell id="o0_39gifiLNaxvfY8GJZ-66" style="edgeStyle=orthogonalEdgeStyle;rounded=0;orthogonalLoop=1;jettySize=auto;html=1;" edge="1" parent="1" source="o0_39gifiLNaxvfY8GJZ-46" target="o0_39gifiLNaxvfY8GJZ-2">
          <mxGeometry relative="1" as="geometry" />
        </mxCell>
        <mxCell id="o0_39gifiLNaxvfY8GJZ-46" value="&lt;u&gt;StudID&lt;/u&gt;" style="ellipse;whiteSpace=wrap;html=1;" vertex="1" parent="1">
          <mxGeometry x="200" y="20" width="60" height="25" as="geometry" />
        </mxCell>
        <mxCell id="o0_39gifiLNaxvfY8GJZ-67" style="edgeStyle=orthogonalEdgeStyle;rounded=0;orthogonalLoop=1;jettySize=auto;html=1;" edge="1" parent="1" source="o0_39gifiLNaxvfY8GJZ-47" target="o0_39gifiLNaxvfY8GJZ-2">
          <mxGeometry relative="1" as="geometry" />
        </mxCell>
        <mxCell id="o0_39gifiLNaxvfY8GJZ-47" value="FName" style="ellipse;whiteSpace=wrap;html=1;" vertex="1" parent="1">
          <mxGeometry x="90" width="60" height="25" as="geometry" />
        </mxCell>
        <mxCell id="o0_39gifiLNaxvfY8GJZ-58" style="edgeStyle=orthogonalEdgeStyle;rounded=0;orthogonalLoop=1;jettySize=auto;html=1;" edge="1" parent="1" source="o0_39gifiLNaxvfY8GJZ-48" target="o0_39gifiLNaxvfY8GJZ-2">
          <mxGeometry relative="1" as="geometry" />
        </mxCell>
        <mxCell id="o0_39gifiLNaxvfY8GJZ-48" value="LName" style="ellipse;whiteSpace=wrap;html=1;" vertex="1" parent="1">
          <mxGeometry x="20" y="10" width="60" height="25" as="geometry" />
        </mxCell>
        <mxCell id="o0_39gifiLNaxvfY8GJZ-65" style="edgeStyle=orthogonalEdgeStyle;rounded=0;orthogonalLoop=1;jettySize=auto;html=1;" edge="1" parent="1" source="o0_39gifiLNaxvfY8GJZ-49" target="o0_39gifiLNaxvfY8GJZ-2">
          <mxGeometry relative="1" as="geometry" />
        </mxCell>
        <mxCell id="o0_39gifiLNaxvfY8GJZ-49" value="DOB" style="ellipse;whiteSpace=wrap;html=1;" vertex="1" parent="1">
          <mxGeometry x="50" y="45" width="60" height="25" as="geometry" />
        </mxCell>
        <mxCell id="o0_39gifiLNaxvfY8GJZ-62" style="edgeStyle=orthogonalEdgeStyle;rounded=0;orthogonalLoop=1;jettySize=auto;html=1;" edge="1" parent="1" source="o0_39gifiLNaxvfY8GJZ-50" target="o0_39gifiLNaxvfY8GJZ-2">
          <mxGeometry relative="1" as="geometry" />
        </mxCell>
        <mxCell id="o0_39gifiLNaxvfY8GJZ-50" value="ATT" style="ellipse;whiteSpace=wrap;html=1;" vertex="1" parent="1">
          <mxGeometry x="10" y="115" width="60" height="25" as="geometry" />
        </mxCell>
        <mxCell id="o0_39gifiLNaxvfY8GJZ-51" value="Email" style="ellipse;whiteSpace=wrap;html=1;" vertex="1" parent="1">
          <mxGeometry x="130" y="45" width="60" height="25" as="geometry" />
        </mxCell>
        <mxCell id="o0_39gifiLNaxvfY8GJZ-64" style="edgeStyle=orthogonalEdgeStyle;rounded=0;orthogonalLoop=1;jettySize=auto;html=1;" edge="1" parent="1" source="o0_39gifiLNaxvfY8GJZ-52" target="o0_39gifiLNaxvfY8GJZ-2">
          <mxGeometry relative="1" as="geometry" />
        </mxCell>
        <mxCell id="o0_39gifiLNaxvfY8GJZ-52" value="Address" style="ellipse;whiteSpace=wrap;html=1;" vertex="1" parent="1">
          <mxGeometry x="10" y="70" width="60" height="25" as="geometry" />
        </mxCell>
        <mxCell id="o0_39gifiLNaxvfY8GJZ-63" style="edgeStyle=orthogonalEdgeStyle;rounded=0;orthogonalLoop=1;jettySize=auto;html=1;" edge="1" parent="1" source="o0_39gifiLNaxvfY8GJZ-53" target="o0_39gifiLNaxvfY8GJZ-2">
          <mxGeometry relative="1" as="geometry" />
        </mxCell>
        <mxCell id="o0_39gifiLNaxvfY8GJZ-53" value="Sex&lt;span style=&quot;color: rgba(0, 0, 0, 0); font-family: monospace; font-size: 0px; text-align: start; text-wrap: nowrap;&quot;&gt;%3CmxGraphModel%3E%3Croot%3E%3CmxCell%20id%3D%220%22%2F%3E%3CmxCell%20id%3D%221%22%20parent%3D%220%22%2F%3E%3CmxCell%20id%3D%222%22%20value%3D%22FName%22%20style%3D%22ellipse%3BwhiteSpace%3Dwrap%3Bhtml%3D1%3B%22%20vertex%3D%221%22%20parent%3D%221%22%3E%3CmxGeometry%20x%3D%2280%22%20y%3D%2225%22%20width%3D%2260%22%20height%3D%2225%22%20as%3D%22geometry%22%2F%3E%3C%2FmxCell%3E%3C%2Froot%3E%3C%2FmxGraphModel%3E&lt;/span&gt;" style="ellipse;whiteSpace=wrap;html=1;" vertex="1" parent="1">
          <mxGeometry x="150" y="150" width="60" height="25" as="geometry" />
        </mxCell>
        <mxCell id="o0_39gifiLNaxvfY8GJZ-60" style="edgeStyle=orthogonalEdgeStyle;rounded=0;orthogonalLoop=1;jettySize=auto;html=1;" edge="1" parent="1" source="o0_39gifiLNaxvfY8GJZ-54" target="o0_39gifiLNaxvfY8GJZ-2">
          <mxGeometry relative="1" as="geometry" />
        </mxCell>
        <mxCell id="o0_39gifiLNaxvfY8GJZ-54" value="Enroll_D" style="ellipse;whiteSpace=wrap;html=1;" vertex="1" parent="1">
          <mxGeometry x="220" y="60" width="60" height="25" as="geometry" />
        </mxCell>
        <mxCell id="o0_39gifiLNaxvfY8GJZ-61" style="edgeStyle=orthogonalEdgeStyle;rounded=0;orthogonalLoop=1;jettySize=auto;html=1;" edge="1" parent="1" source="o0_39gifiLNaxvfY8GJZ-55" target="o0_39gifiLNaxvfY8GJZ-2">
          <mxGeometry relative="1" as="geometry" />
        </mxCell>
        <mxCell id="o0_39gifiLNaxvfY8GJZ-55" value="Phone" style="ellipse;whiteSpace=wrap;html=1;" vertex="1" parent="1">
          <mxGeometry x="215" y="110" width="60" height="25" as="geometry" />
        </mxCell>
        <mxCell id="o0_39gifiLNaxvfY8GJZ-80" style="edgeStyle=orthogonalEdgeStyle;rounded=0;orthogonalLoop=1;jettySize=auto;html=1;" edge="1" parent="1" source="o0_39gifiLNaxvfY8GJZ-68" target="o0_39gifiLNaxvfY8GJZ-9">
          <mxGeometry relative="1" as="geometry" />
        </mxCell>
        <mxCell id="o0_39gifiLNaxvfY8GJZ-68" value="&lt;u&gt;EnrollmentID&lt;/u&gt;" style="ellipse;whiteSpace=wrap;html=1;" vertex="1" parent="1">
          <mxGeometry x="115" y="470" width="85" height="25" as="geometry" />
        </mxCell>
        <mxCell id="o0_39gifiLNaxvfY8GJZ-87" style="edgeStyle=orthogonalEdgeStyle;rounded=0;orthogonalLoop=1;jettySize=auto;html=1;" edge="1" parent="1" source="o0_39gifiLNaxvfY8GJZ-69" target="o0_39gifiLNaxvfY8GJZ-9">
          <mxGeometry relative="1" as="geometry" />
        </mxCell>
        <mxCell id="o0_39gifiLNaxvfY8GJZ-69" value="StdID" style="ellipse;whiteSpace=wrap;html=1;" vertex="1" parent="1">
          <mxGeometry x="10" y="440" width="60" height="25" as="geometry" />
        </mxCell>
        <mxCell id="o0_39gifiLNaxvfY8GJZ-85" style="edgeStyle=orthogonalEdgeStyle;rounded=0;orthogonalLoop=1;jettySize=auto;html=1;" edge="1" parent="1" source="o0_39gifiLNaxvfY8GJZ-70" target="o0_39gifiLNaxvfY8GJZ-9">
          <mxGeometry relative="1" as="geometry" />
        </mxCell>
        <mxCell id="o0_39gifiLNaxvfY8GJZ-70" value="CourseID" style="ellipse;whiteSpace=wrap;html=1;" vertex="1" parent="1">
          <mxGeometry y="550" width="60" height="25" as="geometry" />
        </mxCell>
        <mxCell id="o0_39gifiLNaxvfY8GJZ-82" style="edgeStyle=orthogonalEdgeStyle;rounded=0;orthogonalLoop=1;jettySize=auto;html=1;" edge="1" parent="1" source="o0_39gifiLNaxvfY8GJZ-71" target="o0_39gifiLNaxvfY8GJZ-9">
          <mxGeometry relative="1" as="geometry" />
        </mxCell>
        <mxCell id="o0_39gifiLNaxvfY8GJZ-71" value="EnrollmentDate" style="ellipse;whiteSpace=wrap;html=1;" vertex="1" parent="1">
          <mxGeometry x="135" y="565" width="90" height="25" as="geometry" />
        </mxCell>
        <mxCell id="o0_39gifiLNaxvfY8GJZ-72" value="Grade" style="ellipse;whiteSpace=wrap;html=1;" vertex="1" parent="1">
          <mxGeometry x="130" y="595" width="60" height="25" as="geometry" />
        </mxCell>
        <mxCell id="o0_39gifiLNaxvfY8GJZ-88" style="edgeStyle=orthogonalEdgeStyle;rounded=0;orthogonalLoop=1;jettySize=auto;html=1;" edge="1" parent="1" source="o0_39gifiLNaxvfY8GJZ-74" target="o0_39gifiLNaxvfY8GJZ-9">
          <mxGeometry relative="1" as="geometry" />
        </mxCell>
        <mxCell id="o0_39gifiLNaxvfY8GJZ-74" value="Semester" style="ellipse;whiteSpace=wrap;html=1;" vertex="1" parent="1">
          <mxGeometry x="10" y="410" width="70" height="25" as="geometry" />
        </mxCell>
        <mxCell id="o0_39gifiLNaxvfY8GJZ-86" style="edgeStyle=orthogonalEdgeStyle;rounded=0;orthogonalLoop=1;jettySize=auto;html=1;" edge="1" parent="1" source="o0_39gifiLNaxvfY8GJZ-75" target="o0_39gifiLNaxvfY8GJZ-9">
          <mxGeometry relative="1" as="geometry" />
        </mxCell>
        <mxCell id="o0_39gifiLNaxvfY8GJZ-75" value="Status" style="ellipse;whiteSpace=wrap;html=1;" vertex="1" parent="1">
          <mxGeometry x="10" y="470" width="45" height="25" as="geometry" />
        </mxCell>
        <mxCell id="o0_39gifiLNaxvfY8GJZ-84" style="edgeStyle=orthogonalEdgeStyle;rounded=0;orthogonalLoop=1;jettySize=auto;html=1;" edge="1" parent="1" source="o0_39gifiLNaxvfY8GJZ-76" target="o0_39gifiLNaxvfY8GJZ-9">
          <mxGeometry relative="1" as="geometry" />
        </mxCell>
        <mxCell id="o0_39gifiLNaxvfY8GJZ-76" value="Credits" style="ellipse;whiteSpace=wrap;html=1;" vertex="1" parent="1">
          <mxGeometry x="30" y="580" width="60" height="25" as="geometry" />
        </mxCell>
        <mxCell id="o0_39gifiLNaxvfY8GJZ-79" style="edgeStyle=orthogonalEdgeStyle;rounded=0;orthogonalLoop=1;jettySize=auto;html=1;" edge="1" parent="1" source="o0_39gifiLNaxvfY8GJZ-77" target="o0_39gifiLNaxvfY8GJZ-9">
          <mxGeometry relative="1" as="geometry" />
        </mxCell>
        <mxCell id="o0_39gifiLNaxvfY8GJZ-77" value="FeesPaid" style="ellipse;whiteSpace=wrap;html=1;" vertex="1" parent="1">
          <mxGeometry x="90" y="410" width="60" height="25" as="geometry" />
        </mxCell>
        <mxCell id="o0_39gifiLNaxvfY8GJZ-81" style="edgeStyle=orthogonalEdgeStyle;rounded=0;orthogonalLoop=1;jettySize=auto;html=1;entryX=0.75;entryY=1;entryDx=0;entryDy=0;" edge="1" parent="1" source="o0_39gifiLNaxvfY8GJZ-78" target="o0_39gifiLNaxvfY8GJZ-9">
          <mxGeometry relative="1" as="geometry" />
        </mxCell>
        <mxCell id="o0_39gifiLNaxvfY8GJZ-78" value="Remarks" style="ellipse;whiteSpace=wrap;html=1;" vertex="1" parent="1">
          <mxGeometry x="160" y="500" width="60" height="25" as="geometry" />
        </mxCell>
        <mxCell id="o0_39gifiLNaxvfY8GJZ-83" style="edgeStyle=orthogonalEdgeStyle;rounded=0;orthogonalLoop=1;jettySize=auto;html=1;entryX=0.555;entryY=0.967;entryDx=0;entryDy=0;entryPerimeter=0;" edge="1" parent="1" source="o0_39gifiLNaxvfY8GJZ-72" target="o0_39gifiLNaxvfY8GJZ-9">
          <mxGeometry relative="1" as="geometry" />
        </mxCell>
        <mxCell id="o0_39gifiLNaxvfY8GJZ-106" style="edgeStyle=orthogonalEdgeStyle;rounded=0;orthogonalLoop=1;jettySize=auto;html=1;" edge="1" parent="1" source="o0_39gifiLNaxvfY8GJZ-90" target="o0_39gifiLNaxvfY8GJZ-12">
          <mxGeometry relative="1" as="geometry" />
        </mxCell>
        <mxCell id="o0_39gifiLNaxvfY8GJZ-90" value="&lt;u&gt;CourseID&lt;/u&gt;" style="ellipse;whiteSpace=wrap;html=1;" vertex="1" parent="1">
          <mxGeometry x="270" y="230" width="60" height="25" as="geometry" />
        </mxCell>
        <mxCell id="o0_39gifiLNaxvfY8GJZ-107" style="edgeStyle=orthogonalEdgeStyle;rounded=0;orthogonalLoop=1;jettySize=auto;html=1;" edge="1" parent="1" source="o0_39gifiLNaxvfY8GJZ-91" target="o0_39gifiLNaxvfY8GJZ-12">
          <mxGeometry relative="1" as="geometry" />
        </mxCell>
        <mxCell id="o0_39gifiLNaxvfY8GJZ-91" value="CourseName" style="ellipse;whiteSpace=wrap;html=1;" vertex="1" parent="1">
          <mxGeometry x="180" y="230" width="75" height="25" as="geometry" />
        </mxCell>
        <mxCell id="o0_39gifiLNaxvfY8GJZ-105" style="edgeStyle=orthogonalEdgeStyle;rounded=0;orthogonalLoop=1;jettySize=auto;html=1;" edge="1" parent="1" source="o0_39gifiLNaxvfY8GJZ-93" target="o0_39gifiLNaxvfY8GJZ-12">
          <mxGeometry relative="1" as="geometry" />
        </mxCell>
        <mxCell id="o0_39gifiLNaxvfY8GJZ-93" value="Credit" style="ellipse;whiteSpace=wrap;html=1;" vertex="1" parent="1">
          <mxGeometry x="290" y="267.5" width="60" height="25" as="geometry" />
        </mxCell>
        <mxCell id="o0_39gifiLNaxvfY8GJZ-104" style="edgeStyle=orthogonalEdgeStyle;rounded=0;orthogonalLoop=1;jettySize=auto;html=1;" edge="1" parent="1" source="o0_39gifiLNaxvfY8GJZ-94" target="o0_39gifiLNaxvfY8GJZ-12">
          <mxGeometry relative="1" as="geometry" />
        </mxCell>
        <mxCell id="o0_39gifiLNaxvfY8GJZ-94" value="InstructorID" style="ellipse;whiteSpace=wrap;html=1;" vertex="1" parent="1">
          <mxGeometry x="320" y="325" width="75" height="25" as="geometry" />
        </mxCell>
        <mxCell id="o0_39gifiLNaxvfY8GJZ-109" style="edgeStyle=orthogonalEdgeStyle;rounded=0;orthogonalLoop=1;jettySize=auto;html=1;" edge="1" parent="1" source="o0_39gifiLNaxvfY8GJZ-95" target="o0_39gifiLNaxvfY8GJZ-12">
          <mxGeometry relative="1" as="geometry" />
        </mxCell>
        <mxCell id="o0_39gifiLNaxvfY8GJZ-95" value="Sem" style="ellipse;whiteSpace=wrap;html=1;" vertex="1" parent="1">
          <mxGeometry x="127.5" y="305" width="60" height="25" as="geometry" />
        </mxCell>
        <mxCell id="o0_39gifiLNaxvfY8GJZ-111" style="edgeStyle=orthogonalEdgeStyle;rounded=0;orthogonalLoop=1;jettySize=auto;html=1;" edge="1" parent="1" source="o0_39gifiLNaxvfY8GJZ-96" target="o0_39gifiLNaxvfY8GJZ-12">
          <mxGeometry relative="1" as="geometry" />
        </mxCell>
        <mxCell id="o0_39gifiLNaxvfY8GJZ-96" value="Descrip" style="ellipse;whiteSpace=wrap;html=1;" vertex="1" parent="1">
          <mxGeometry x="260" y="347.5" width="60" height="25" as="geometry" />
        </mxCell>
        <mxCell id="o0_39gifiLNaxvfY8GJZ-108" style="edgeStyle=orthogonalEdgeStyle;rounded=0;orthogonalLoop=1;jettySize=auto;html=1;" edge="1" parent="1" source="o0_39gifiLNaxvfY8GJZ-97" target="o0_39gifiLNaxvfY8GJZ-12">
          <mxGeometry relative="1" as="geometry" />
        </mxCell>
        <mxCell id="o0_39gifiLNaxvfY8GJZ-97" value="Schedule" style="ellipse;whiteSpace=wrap;html=1;" vertex="1" parent="1">
          <mxGeometry x="140" y="267.5" width="60" height="25" as="geometry" />
        </mxCell>
        <mxCell id="o0_39gifiLNaxvfY8GJZ-103" style="edgeStyle=orthogonalEdgeStyle;rounded=0;orthogonalLoop=1;jettySize=auto;html=1;" edge="1" parent="1" source="o0_39gifiLNaxvfY8GJZ-98" target="o0_39gifiLNaxvfY8GJZ-12">
          <mxGeometry relative="1" as="geometry" />
        </mxCell>
        <mxCell id="o0_39gifiLNaxvfY8GJZ-98" value="MaxEnroll" style="ellipse;whiteSpace=wrap;html=1;" vertex="1" parent="1">
          <mxGeometry x="275" y="380" width="60" height="20" as="geometry" />
        </mxCell>
        <mxCell id="o0_39gifiLNaxvfY8GJZ-102" style="edgeStyle=orthogonalEdgeStyle;rounded=0;orthogonalLoop=1;jettySize=auto;html=1;" edge="1" parent="1" source="o0_39gifiLNaxvfY8GJZ-99" target="o0_39gifiLNaxvfY8GJZ-12">
          <mxGeometry relative="1" as="geometry" />
        </mxCell>
        <mxCell id="o0_39gifiLNaxvfY8GJZ-99" value="Prerequisite" style="ellipse;whiteSpace=wrap;html=1;" vertex="1" parent="1">
          <mxGeometry x="160" y="340" width="80" height="25" as="geometry" />
        </mxCell>
        <mxCell id="o0_39gifiLNaxvfY8GJZ-101" style="edgeStyle=orthogonalEdgeStyle;rounded=0;orthogonalLoop=1;jettySize=auto;html=1;" edge="1" parent="1" source="o0_39gifiLNaxvfY8GJZ-100" target="o0_39gifiLNaxvfY8GJZ-12">
          <mxGeometry relative="1" as="geometry" />
        </mxCell>
        <mxCell id="o0_39gifiLNaxvfY8GJZ-100" value="Dept" style="ellipse;whiteSpace=wrap;html=1;" vertex="1" parent="1">
          <mxGeometry x="180" y="380" width="60" height="25" as="geometry" />
        </mxCell>
        <mxCell id="o0_39gifiLNaxvfY8GJZ-122" style="edgeStyle=orthogonalEdgeStyle;rounded=0;orthogonalLoop=1;jettySize=auto;html=1;" edge="1" parent="1" source="o0_39gifiLNaxvfY8GJZ-112" target="o0_39gifiLNaxvfY8GJZ-11">
          <mxGeometry relative="1" as="geometry" />
        </mxCell>
        <mxCell id="o0_39gifiLNaxvfY8GJZ-112" value="&lt;u&gt;InstructorID&lt;/u&gt;" style="ellipse;whiteSpace=wrap;html=1;" vertex="1" parent="1">
          <mxGeometry x="345" y="35" width="75" height="25" as="geometry" />
        </mxCell>
        <mxCell id="o0_39gifiLNaxvfY8GJZ-123" style="edgeStyle=orthogonalEdgeStyle;rounded=0;orthogonalLoop=1;jettySize=auto;html=1;" edge="1" parent="1" source="o0_39gifiLNaxvfY8GJZ-113" target="o0_39gifiLNaxvfY8GJZ-11">
          <mxGeometry relative="1" as="geometry" />
        </mxCell>
        <mxCell id="o0_39gifiLNaxvfY8GJZ-113" value="FName" style="ellipse;whiteSpace=wrap;html=1;" vertex="1" parent="1">
          <mxGeometry x="410" y="10" width="60" height="25" as="geometry" />
        </mxCell>
        <mxCell id="o0_39gifiLNaxvfY8GJZ-125" style="edgeStyle=orthogonalEdgeStyle;rounded=0;orthogonalLoop=1;jettySize=auto;html=1;" edge="1" parent="1" source="o0_39gifiLNaxvfY8GJZ-114" target="o0_39gifiLNaxvfY8GJZ-11">
          <mxGeometry relative="1" as="geometry" />
        </mxCell>
        <mxCell id="o0_39gifiLNaxvfY8GJZ-114" value="LName" style="ellipse;whiteSpace=wrap;html=1;" vertex="1" parent="1">
          <mxGeometry x="490" y="10" width="60" height="25" as="geometry" />
        </mxCell>
        <mxCell id="o0_39gifiLNaxvfY8GJZ-130" style="edgeStyle=orthogonalEdgeStyle;rounded=0;orthogonalLoop=1;jettySize=auto;html=1;" edge="1" parent="1" source="o0_39gifiLNaxvfY8GJZ-115" target="o0_39gifiLNaxvfY8GJZ-11">
          <mxGeometry relative="1" as="geometry" />
        </mxCell>
        <mxCell id="o0_39gifiLNaxvfY8GJZ-115" value="Dept" style="ellipse;whiteSpace=wrap;html=1;" vertex="1" parent="1">
          <mxGeometry x="360" y="95" width="60" height="25" as="geometry" />
        </mxCell>
        <mxCell id="o0_39gifiLNaxvfY8GJZ-124" style="edgeStyle=orthogonalEdgeStyle;rounded=0;orthogonalLoop=1;jettySize=auto;html=1;" edge="1" parent="1" source="o0_39gifiLNaxvfY8GJZ-116">
          <mxGeometry relative="1" as="geometry">
            <mxPoint x="440" y="80" as="targetPoint" />
          </mxGeometry>
        </mxCell>
        <mxCell id="o0_39gifiLNaxvfY8GJZ-116" value="Email" style="ellipse;whiteSpace=wrap;html=1;" vertex="1" parent="1">
          <mxGeometry x="450" y="35" width="60" height="25" as="geometry" />
        </mxCell>
        <mxCell id="o0_39gifiLNaxvfY8GJZ-128" style="edgeStyle=orthogonalEdgeStyle;rounded=0;orthogonalLoop=1;jettySize=auto;html=1;" edge="1" parent="1" source="o0_39gifiLNaxvfY8GJZ-117" target="o0_39gifiLNaxvfY8GJZ-11">
          <mxGeometry relative="1" as="geometry" />
        </mxCell>
        <mxCell id="o0_39gifiLNaxvfY8GJZ-117" value="Phone" style="ellipse;whiteSpace=wrap;html=1;" vertex="1" parent="1">
          <mxGeometry x="500" y="115" width="60" height="25" as="geometry" />
        </mxCell>
        <mxCell id="o0_39gifiLNaxvfY8GJZ-129" style="edgeStyle=orthogonalEdgeStyle;rounded=0;orthogonalLoop=1;jettySize=auto;html=1;" edge="1" parent="1" source="o0_39gifiLNaxvfY8GJZ-118" target="o0_39gifiLNaxvfY8GJZ-11">
          <mxGeometry relative="1" as="geometry" />
        </mxCell>
        <mxCell id="o0_39gifiLNaxvfY8GJZ-118" value="Office" style="ellipse;whiteSpace=wrap;html=1;" vertex="1" parent="1">
          <mxGeometry x="410" y="115" width="60" height="25" as="geometry" />
        </mxCell>
        <mxCell id="o0_39gifiLNaxvfY8GJZ-126" style="edgeStyle=orthogonalEdgeStyle;rounded=0;orthogonalLoop=1;jettySize=auto;html=1;" edge="1" parent="1" source="o0_39gifiLNaxvfY8GJZ-119" target="o0_39gifiLNaxvfY8GJZ-11">
          <mxGeometry relative="1" as="geometry" />
        </mxCell>
        <mxCell id="o0_39gifiLNaxvfY8GJZ-119" value="HireDate" style="ellipse;whiteSpace=wrap;html=1;" vertex="1" parent="1">
          <mxGeometry x="540" y="35" width="60" height="25" as="geometry" />
        </mxCell>
        <mxCell id="o0_39gifiLNaxvfY8GJZ-120" value="Salary&lt;span style=&quot;color: rgba(0, 0, 0, 0); font-family: monospace; font-size: 0px; text-align: start; text-wrap: nowrap;&quot;&gt;%3CmxGraphModel%3E%3Croot%3E%3CmxCell%20id%3D%220%22%2F%3E%3CmxCell%20id%3D%221%22%20parent%3D%220%22%2F%3E%3CmxCell%20id%3D%222%22%20value%3D%22Email%22%20style%3D%22ellipse%3BwhiteSpace%3Dwrap%3Bhtml%3D1%3B%22%20vertex%3D%221%22%20parent%3D%221%22%3E%3CmxGeometry%20x%3D%22450%22%20y%3D%2250%22%20width%3D%2260%22%20height%3D%2225%22%20as%3D%22geometry%22%2F%3E%3C%2FmxCell%3E%3C%2Froot%3E%3C%2FmxGraphModel%3E&lt;/span&gt;" style="ellipse;whiteSpace=wrap;html=1;" vertex="1" parent="1">
          <mxGeometry x="335" y="65" width="60" height="25" as="geometry" />
        </mxCell>
        <mxCell id="o0_39gifiLNaxvfY8GJZ-127" style="edgeStyle=orthogonalEdgeStyle;rounded=0;orthogonalLoop=1;jettySize=auto;html=1;" edge="1" parent="1" source="o0_39gifiLNaxvfY8GJZ-121" target="o0_39gifiLNaxvfY8GJZ-11">
          <mxGeometry relative="1" as="geometry" />
        </mxCell>
        <mxCell id="o0_39gifiLNaxvfY8GJZ-121" value="Title" style="ellipse;whiteSpace=wrap;html=1;" vertex="1" parent="1">
          <mxGeometry x="560" y="95" width="60" height="25" as="geometry" />
        </mxCell>
        <mxCell id="o0_39gifiLNaxvfY8GJZ-145" style="edgeStyle=orthogonalEdgeStyle;rounded=0;orthogonalLoop=1;jettySize=auto;html=1;" edge="1" parent="1" source="o0_39gifiLNaxvfY8GJZ-131" target="o0_39gifiLNaxvfY8GJZ-10">
          <mxGeometry relative="1" as="geometry" />
        </mxCell>
        <mxCell id="o0_39gifiLNaxvfY8GJZ-131" value="&lt;u&gt;DeptID&lt;/u&gt;" style="ellipse;whiteSpace=wrap;html=1;" vertex="1" parent="1">
          <mxGeometry x="732.5" y="202.5" width="75" height="25" as="geometry" />
        </mxCell>
        <mxCell id="o0_39gifiLNaxvfY8GJZ-141" style="edgeStyle=orthogonalEdgeStyle;rounded=0;orthogonalLoop=1;jettySize=auto;html=1;" edge="1" parent="1" source="o0_39gifiLNaxvfY8GJZ-132" target="o0_39gifiLNaxvfY8GJZ-10">
          <mxGeometry relative="1" as="geometry" />
        </mxCell>
        <mxCell id="o0_39gifiLNaxvfY8GJZ-132" value="DepartmentName" style="ellipse;whiteSpace=wrap;html=1;" vertex="1" parent="1">
          <mxGeometry x="490" y="185" width="100" height="25" as="geometry" />
        </mxCell>
        <mxCell id="o0_39gifiLNaxvfY8GJZ-149" style="edgeStyle=orthogonalEdgeStyle;rounded=0;orthogonalLoop=1;jettySize=auto;html=1;" edge="1" parent="1" source="o0_39gifiLNaxvfY8GJZ-133">
          <mxGeometry relative="1" as="geometry">
            <mxPoint x="650" y="240" as="targetPoint" />
          </mxGeometry>
        </mxCell>
        <mxCell id="o0_39gifiLNaxvfY8GJZ-133" value="Office" style="ellipse;whiteSpace=wrap;html=1;" vertex="1" parent="1">
          <mxGeometry x="555" y="220" width="60" height="25" as="geometry" />
        </mxCell>
        <mxCell id="o0_39gifiLNaxvfY8GJZ-134" value="Phone" style="ellipse;whiteSpace=wrap;html=1;" vertex="1" parent="1">
          <mxGeometry x="750" y="242.5" width="60" height="25" as="geometry" />
        </mxCell>
        <mxCell id="o0_39gifiLNaxvfY8GJZ-148" style="edgeStyle=orthogonalEdgeStyle;rounded=0;orthogonalLoop=1;jettySize=auto;html=1;" edge="1" parent="1" source="o0_39gifiLNaxvfY8GJZ-135" target="o0_39gifiLNaxvfY8GJZ-10">
          <mxGeometry relative="1" as="geometry" />
        </mxCell>
        <mxCell id="o0_39gifiLNaxvfY8GJZ-135" value="Head" style="ellipse;whiteSpace=wrap;html=1;" vertex="1" parent="1">
          <mxGeometry x="550" y="255" width="60" height="25" as="geometry" />
        </mxCell>
        <mxCell id="o0_39gifiLNaxvfY8GJZ-147" style="edgeStyle=orthogonalEdgeStyle;rounded=0;orthogonalLoop=1;jettySize=auto;html=1;" edge="1" parent="1" source="o0_39gifiLNaxvfY8GJZ-136" target="o0_39gifiLNaxvfY8GJZ-10">
          <mxGeometry relative="1" as="geometry" />
        </mxCell>
        <mxCell id="o0_39gifiLNaxvfY8GJZ-136" value="Faculty Count" style="ellipse;whiteSpace=wrap;html=1;" vertex="1" parent="1">
          <mxGeometry x="615" y="272.5" width="60" height="40" as="geometry" />
        </mxCell>
        <mxCell id="o0_39gifiLNaxvfY8GJZ-146" style="edgeStyle=orthogonalEdgeStyle;rounded=0;orthogonalLoop=1;jettySize=auto;html=1;" edge="1" parent="1" source="o0_39gifiLNaxvfY8GJZ-137" target="o0_39gifiLNaxvfY8GJZ-10">
          <mxGeometry relative="1" as="geometry" />
        </mxCell>
        <mxCell id="o0_39gifiLNaxvfY8GJZ-137" value="EstbDate" style="ellipse;whiteSpace=wrap;html=1;" vertex="1" parent="1">
          <mxGeometry x="730" y="275" width="60" height="25" as="geometry" />
        </mxCell>
        <mxCell id="o0_39gifiLNaxvfY8GJZ-138" value="Budget" style="ellipse;whiteSpace=wrap;html=1;" vertex="1" parent="1">
          <mxGeometry x="615" y="195" width="60" height="25" as="geometry" />
        </mxCell>
        <mxCell id="o0_39gifiLNaxvfY8GJZ-144" style="edgeStyle=orthogonalEdgeStyle;rounded=0;orthogonalLoop=1;jettySize=auto;html=1;" edge="1" parent="1" source="o0_39gifiLNaxvfY8GJZ-139" target="o0_39gifiLNaxvfY8GJZ-10">
          <mxGeometry relative="1" as="geometry" />
        </mxCell>
        <mxCell id="o0_39gifiLNaxvfY8GJZ-139" value="Coursers_offered" style="ellipse;whiteSpace=wrap;html=1;" vertex="1" parent="1">
          <mxGeometry x="695" y="160" width="110" height="25" as="geometry" />
        </mxCell>
        <mxCell id="o0_39gifiLNaxvfY8GJZ-143" style="edgeStyle=orthogonalEdgeStyle;rounded=0;orthogonalLoop=1;jettySize=auto;html=1;" edge="1" parent="1" source="o0_39gifiLNaxvfY8GJZ-140" target="o0_39gifiLNaxvfY8GJZ-10">
          <mxGeometry relative="1" as="geometry" />
        </mxCell>
        <mxCell id="o0_39gifiLNaxvfY8GJZ-140" value="Bldg" style="ellipse;whiteSpace=wrap;html=1;" vertex="1" parent="1">
          <mxGeometry x="605" y="160" width="60" height="25" as="geometry" />
        </mxCell>
        <mxCell id="o0_39gifiLNaxvfY8GJZ-142" style="edgeStyle=orthogonalEdgeStyle;rounded=0;orthogonalLoop=1;jettySize=auto;html=1;entryX=0.622;entryY=0.033;entryDx=0;entryDy=0;entryPerimeter=0;" edge="1" parent="1" source="o0_39gifiLNaxvfY8GJZ-138" target="o0_39gifiLNaxvfY8GJZ-10">
          <mxGeometry relative="1" as="geometry" />
        </mxCell>
      </root>
    </mxGraphModel>
  </diagram>
</mxfile>
